<?xml version="1.0" encoding="UTF-8" standalone="no"?>
<svg id="mfileslogo" xmlns="http://www.w3.org/2000/svg" width="48" height="48" viewBox="0 0 480 480" preserveAspectRatio="xMidYMid meet" title="mfiles.svg (799Byte)" style="transform: none; transform-origin: 50% 50%; cursor: move; display: inline;">
    <g id="layer101" fill="#007dc6" stroke="none">
        <path d="M0 240 l0 -240 240 0 240 0 0 240 0 240 -240 0 -240 0 0 -240z"></path>
    </g> 
<g id="layer102" fill="#feffff" stroke="none">
        <path d="M63 378 c2 -7 19 -75 36 -150 l33 -138 33 0 c38 0 37 0 56 100 6 36 15 69 19 73 4 5 31 -32 60 -82 49 -87 53 -91 86 -91 l35 0 -6 48 c-3 26 -12 92 -18 147 l-12 100 -33 3 c-36 4 -38 -2 -23 -90 4 -27 5 -48 2 -48 -3 0 -21 25 -39 56 -31 50 -37 55 -65 52 -29 -3 -33 -7 -44 -52 -7 -26 -14 -50 -16 -53 -3 -2 -12 28 -22 67 l-17 70 -35 0 c-24 0 -34 -4 -30 -12z">
        </path>
    </g>
</svg> 
